#!OML:ASF E:/inclinewalkrobotboard/Project1/Captureday1/Session1/subject1.ASF
:FULLY-SPECIFIED
:DEGREES
288
root 0 0 0 1.8751214580469315 -9.097533852929155 1.3872386319318006
lowerback 0.9924617814600314 -1.5398584002013838 -3.254391459484758
upperback -0.7645964332813839 -1.9678082483247332 2.373931827282827
thorax -1.0921825246336194 -0.9546832346876566 4.251994591234033
lowerneck -30.11981818881599 -2.29306607976593 -7.483265116051544
upperneck 6.798513712443702 -1.1399810962838344 5.53789088671507
head 6.68090131672161 -0.10184718874302096 2.862635491541897
rclavicle -1.082565164079579E-15 -1.895393846050612E-15
rhumerus -32.5381715992877 -5.165531659414686 -80.10517035107573
rradius 29.9089912601583
rwrist 18.531428912670364
rhand -17.599793725692713 9.937466133380397
rfingers 7.125019999999943
rthumb 8.65142165862586 -19.90090162413851
lclavicle -9.481054982992928E-16 -1.1633780324506863E-15
lhumerus -9.69743678595038 7.4729164005404085 88.66789714520517
lradius 61.4761069265001
lwrist -4.783912781878998
lhand -33.552458024305714 17.854800653912672
lfingers 7.1250200000000055
lthumb -6.743722517438639 47.50108734081317
rfemur -32.499283205873915 2.907199788804503 18.330936389764855
rtibia 33.70583970331048
rfoot -6.53440481897181 -12.194404995406185
rtoes -5.96473829826072
lfemur 9.35137135006587 -2.802478856568407 -30.30573551168284
ltibia 21.31800219857387
lfoot -17.246882135129358 -2.578781905190414
ltoes -1.5290579285587906
289
root 0 0 0 1.9818967776824505 -9.218978664913722 1.4893850654371208
lowerback 0.9073340146272122 -1.615636392242656 -3.302481792630488
upperback -0.6750929992206018 -2.0792167044905097 2.408839978918772
thorax -0.9478686574613173 -1.0108699251810012 4.310827815265922
lowerneck -31.026757337066815 -2.3631710885014767 -7.509979262324208
upperneck 5.7338722080712525 -1.1798877432534065 5.657350814075057
head 6.4308856829608825 -0.07103141818191422 2.885235813180818
rclavicle -2.700755694024111E-16 -2.661697093740642E-15
rhumerus -32.53893741740383 -5.009792165157329 -80.02537744976551
rradius 29.864782917019433
rwrist 18.503338974288432
rhand -17.630409537860555 9.972409747945134
rfingers 7.125019999999943
rthumb 8.62073032799177 -19.878916877484283
lclavicle -4.1952042209191844E-16 -1.4782370010743334E-15
lhumerus -9.952192947047518 7.078700399550088 88.66355400993568
lradius 61.56420095592967
lwrist -4.597588553691516
lhand -33.43849774842505 17.974003503219876
lfingers 7.125020000000005
lthumb -6.630595841648994 47.629848759492226
rfemur -33.87070741578994 3.947007233447195 17.67126387968816
rtibia 26.750162949416463
rfoot -6.112608109716199 -12.636472072381302
rtoes -6.834928851075418
lfemur 15.338147375555382 -3.5266324065662102 -29.8252342138763
ltibia 20.43119416465998
lfoot -14.380362952442725 -5.1187513656931785
ltoes -7.305314879306434
290
root 0 0 0 2.0984197938818667 -9.35363902363226 1.6021201624746308
lowerback 0.8073122606830574 -1.6939128552916087 -3.3603075463404872
upperback -0.5929915083463422 -2.1947769340970273 2.449693505888137
thorax -0.8012714756367108 -1.0695935689599758 4.381277088013928
lowerneck -31.941346390121556 -2.4145765184698194 -7.543295303995562
upperneck 4.659883864578557 -1.19167329401955 5.7785325279523825
head 6.178869464461373 -0.028380971219580435 2.9139228720600565
rclavicle -4.560637285384542E-16 -3.454600596073194E-15
rhumerus -32.61782996341024 -4.95799153177861 -79.93402972047258
rradius 29.809570668772157
rwrist 18.61425005223147
rhand -17.61581194787128 9.909533123195168
rfingers 7.125019999999945
rthumb 8.633435302597853 -19.95726364804126
lclavicle -6.696786472914374E-16 -1.684240941738267E-15
lhumerus -9.590431306718942 6.961773012843321 88.30425527687271
lradius 61.845629795091575
lwrist -4.620051537535495
lhand -33.48077682137225 18.01768536107719
lfingers 7.125020000000004
lthumb -6.666915004549883 47.6752221508139
rfemur -34.487117658050245 4.48808362840413 17.531840848903613
rtibia 23.76911066485843
rfoot -5.496286583559694 -12.51521443893181
rtoes -6.327375551487616
lfemur 19.710267866146516 -3.4859532041269654 -28.586351752594204
ltibia 25.317805289757366
lfoot -9.831834202203902 -8.650319178137426
ltoes -12.828859530890075
291
root 0 0 0 2.173579429160694 -9.440080877110262 1.6758224798074015
lowerback 0.753057922442379 -1.7437992475749469 -3.3952636326048933
upperback -0.5397199526083898 -2.268509987218319 2.479940581342245
thorax -0.7118224592716498 -1.1081845649682776 4.4286076856034375
lowerneck -32.512512846077826 -2.429235637531561 -7.554254636200696
upperneck 3.992002195265906 -1.1736411899618284 5.839659152704493
head 6.021175919182851 0.007977097566525787 2.9293410580227444
rclavicle -1.7014775812856575E-15 -4.049407206678695E-15
rhumerus -32.737601623273505 -5.065001653058319 -79.86568249111625
rradius 29.759880021793848
rwrist 18.791759131616192
rhand -17.560577673492798 9.797768002475397
rfingers 7.125019999999949
rthumb 8.685655294799135 -20.082608674315804
lclavicle -1.2076600227644362E-15 -1.821577280068308E-15
lhumerus -9.005870545763566 7.137197110647928 87.8801104943389
lradius 62.07088617885468
lwrist -4.773432832529901
lhand -33.598709658647245 17.97897111046513
lfingers 7.125020000000004
lthumb -6.777497606933101 47.632312619712
rfemur -34.48310806291396 4.991925280802736 18.41329930927341
rtibia 22.06022118323976
rfoot -4.727736043251298 -12.096357988989745
rtoes -3.7144068496156306
lfemur 19.068179786115714 -2.4958542456914197 -26.067640023114997
ltibia 34.25196455141767
lfoot -3.8041256613991843 -12.298660766728247
ltoes -16.654407970021634
292
root 0 0 0 2.174087538756464 -9.456322332757127 1.6828985446141993
lowerback 0.7808913361642027 -1.757590708288693 -3.379098870462639
upperback -0.512123026973551 -2.2881098679256326 2.4868361096812697
thorax -0.6999179195153897 -1.1196162773734093 4.423014740617829
lowerneck -32.66949860059322 -2.4257450433134164 -7.513313907661422
upperneck 3.877938906690339 -1.151597612190964 5.7919227193691585
head 5.999725208190261 0.01858619090331759 2.907062694585343
rclavicle -2.8615707415961736E-15 -4.2798387924478235E-15
rhumerus -32.84226504438501 -5.278066682562315 -79.85052068961953
rradius 29.73812509251376
rwrist 18.948936546577926
rhand -17.491784871083407 9.691686322871076
rfingers 7.125019999999951
rthumb 8.751574206641946 -20.19902517973454
lclavicle -1.076736597278859E-15 -1.96752804962404E-15
lhumerus -8.925071836000049 7.538235146621601 87.88688361655231
lradius 61.87526789624533
lwrist -4.9024405818390235
lhand -33.644704192421315 17.859899412397333
lfingers 7.125020000000005
lthumb -6.821852887494941 47.509273179506415
rfemur -31.84211378143462 5.968469702744921 21.987958017156238
rtibia 19.69089968438376
rfoot -4.416619064726433 -11.06555648768463
rtoes 2.044267079053559
lfemur 11.771663554970532 -1.4223973468777578 -21.80366212765821
ltibia 43.11696550391137
lfoot 3.780037893855477 -15.19363558405835
ltoes -16.675662619196252
293
root 0 0 0 2.087265918617563 -9.405429971419363 1.616326826032832
lowerback 0.8990495520402615 -1.7357410178502262 -3.300725706699552
upperback -0.5109296030975716 -2.2536035597633624 2.4664146907128925
thorax -0.7721089341093745 -1.1033656594273065 4.3542992922929304
lowerneck -32.412217323613234 -2.4072637800840386 -7.406553120484188
upperneck 4.373060939692179 -1.1233160391122063 5.60339383965554
head 6.1348345709062295 -5.288222509835377E-4 2.8338334121879365
rclavicle -3.4099615636634294E-15 -4.1310814977511135E-15
rhumerus -32.905902407102396 -5.558548611903735 -79.9044798605926
rradius 29.756125145161022
rwrist 19.060027421481752
rhand -17.422883378186523 9.607527799175216
rfingers 7.125019999999952
rthumb 8.818639162035927 -20.2824632281428
lclavicle -4.4124209890171507E-16 -2.1118223546653613E-15
lhumerus -9.542024838610436 8.152631552011297 88.48748769573648
lradius 61.173456537237314
lwrist -4.984638208517408
lhand -33.59620934577023 17.63974180363205
lfingers 7.125020000000006
lthumb -6.776994456795343 47.28596076919014
rfemur -21.073552437463857 7.0980724514655655 29.585392414000047
rtibia 21.043793878472464
rfoot -4.459683832623114 -8.885203700217424
rtoes 9.561355809276893
lfemur 2.4824472212522974 -0.6239780515702305 -18.648803042199578
ltibia 49.6222801057281
lfoot 8.717592836517484 -15.700198329841578
ltoes -12.559466651299777
294
root 0 0 0 1.9406461446481753 -9.307852163438538 1.495765356914245
lowerback 1.0524094315003127 -1.6766624009615885 -3.193802993431446
upperback -0.5629827740333471 -2.1634389755975434 2.4256083048591663
thorax -0.9204200929456204 -1.0585431425870873 4.252736285401463
lowerneck -31.684496636834144 -2.350027898002122 -7.28634706130316
upperneck 5.470460337803976 -1.063450334478113 5.329214233062325
head 6.422179740717853 -0.03610902887498455 2.7424056302357482
rclavicle -3.925669372584526E-15 -3.573395925051454E-15
rhumerus -32.92467974526272 -5.7565625261949 -80.02319544924724
rradius 29.82525536984268
rwrist 19.169795614852355
rhand -17.372392689057325 9.504895014510726
rfingers 7.125019999999954
rthumb 8.869285852263218 -20.36258354968138
lclavicle -6.225210412946125E-16 -1.9370583118181168E-15
lhumerus -9.77053310652514 8.919635988193079 88.89977432839011
lradius 60.61735556180648
lwrist -5.19745275378844
lhand -33.65542139926214 17.379777985502095
lfingers 7.125020000000009
lthumb -6.836324842564562 47.01678642607774
rfemur -12.163727091683551 7.516549531621443 34.11368995596555
rtibia 24.991369410820724
rfoot -6.714782054882873 -6.839629055972832
rtoes 13.822994812789355
lfemur -7.826751235740815 0.3870122461856105 -16.32594941958339
ltibia 55.1654211265527
lfoot 7.70380009410694 -13.128837767357558
ltoes -8.111998756059668
